<?xml version="1.0" encoding="utf-8"?>
<!-- Svg Vector Icons : http://www.onlinewebfonts.com/icon -->
<!DOCTYPE svg PUBLIC "-//W3C//DTD SVG 1.1//EN" "http://www.w3.org/Graphics/SVG/1.1/DTD/svg11.dtd">
<svg version="1.1" xmlns="http://www.w3.org/2000/svg" xmlns:xlink="http://www.w3.org/1999/xlink" x="0px" y="0px" viewBox="0 0 1000 1000" enable-background="new 0 0 1000 1000" xml:space="preserve">
<metadata> Svg Vector Icons : http://www.onlinewebfonts.com/icon </metadata>
<g><g><path d="M925.6,207.8C965.8,154,989.9,98.1,990,58.2c-0.1-12.9-2.6-23-7.6-30.6c-0.5-0.9-1.9-3.3-4.4-5.7c-2.5-2.5-4.7-3.8-5.2-4.1c-7.9-5.3-18.1-7.8-31-7.8c-39.8,0.1-95.8,24.1-149.6,64.4c-43.5,32.6-87.1,78.5-147.3,142c-10.2,10.8-21,22.1-32.4,34l-116.7-35l0.4-0.3c4.9-4.9,7.6-11.6,7.5-18.3c0.1-7-2.8-13.7-7.6-18.6l-21.1-21.1c-4.9-4.9-11.6-7.7-18.6-7.7c-7,0-13.6,2.7-18.5,7.7l-31.5,31.6l-16.7-5c3.6-4.6,5.6-10.3,5.5-15.9c0.1-7.1-2.7-13.7-7.6-18.6l-21.2-21.2c-4.8-4.9-11.5-7.6-18.6-7.6c-7,0-13.5,2.7-18.4,7.7l-28.9,28.9l-118.7-35.6c-2.7-0.8-5.5-1.2-8.5-1.2c-8.4,0.1-16.2,3.2-22,8.9l-41.7,41.7c-4.7,4.7-7.4,11.1-7.3,17.2c-0.2,9,4.8,17.2,12.7,21.5l249.6,139.4c1.2,0.7,4.8,3.3,6.1,4.6l71.2,71.1c-66.6,70.1-125.9,138-172.1,197.1c-4.3,5.5-8.4,10.8-12.4,16.1L64.2,620.4c-0.9-0.1-2-0.2-3.3-0.2c-8.9,0.2-17.5,3.7-23.9,9.9l-19.5,19.4c-4.8,4.7-7.5,11.1-7.4,17.2c-0.1,9.4,5.5,18,14,21.8l135.9,64.5c1.2,0.6,4.2,2.7,5.2,3.7l11.3,11.2c-3.5,9.9-5.3,18.6-5.4,26.1c0,10.1,3.2,18.8,9.5,25l0.5,0.4l0.1,0.1c6.4,6.2,14.7,9.4,25,9.4c7.4-0.1,15.9-1.9,25.9-5.4l11.4,11.4c0.9,0.9,3,3.9,3.6,5.1l64.4,135.6c3.9,8.7,12.4,14.3,21.7,14.3h0.1c6.4,0,12.5-2.6,17.2-7.2l19.9-20c5.9-6.2,9.4-14.8,9.5-23.9c0-1.1,0-2-0.1-2.4l-17.6-193.8c5.3-4,10.6-8.1,16.1-12.4c59.2-46.3,127.1-105.6,197.1-172.1l71.2,71.3c1.2,1.1,3.8,4.6,4.6,6.1l139.2,249.2c4.3,8,12.4,13,21.5,13c6.5,0,12.6-2.6,17.4-7.3l42-42c5.5-5.7,8.5-13.5,8.6-21.9c0-2.8-0.4-5.6-1.1-8.2l-35.6-118.7l28.9-29c4.9-4.8,7.6-11.6,7.6-18.5c0-6.9-2.7-13.5-7.6-18.4l-21.2-21.2c-4.9-4.9-11.6-7.6-18.5-7.6c-5.9,0-11.6,2-16,5.5l-5-16.6l31.6-31.6c4.9-4.9,7.6-11.6,7.6-18.5c0-7-2.7-13.5-7.6-18.4l-21.1-21.1c-4.9-4.9-11.6-7.7-18.6-7.7c-7,0-13.7,2.8-18.5,7.7l-0.2,0.2l-35-116.7c12.1-11.5,23.5-22.5,34.5-32.8C847.4,294.7,893.1,251.3,925.6,207.8z"/></g><g></g><g></g><g></g><g></g><g></g><g></g><g></g><g></g><g></g><g></g><g></g><g></g><g></g><g></g><g></g></g>
</svg>