<?xml version="1.0" standalone="no"?>
<!DOCTYPE svg PUBLIC "-//W3C//DTD SVG 20010904//EN"
 "http://www.w3.org/TR/2001/REC-SVG-20010904/DTD/svg10.dtd">
<svg version="1.0" xmlns="http://www.w3.org/2000/svg"
 width="980.000000pt" height="980.000000pt" viewBox="0 0 980.000000 980.000000"
 preserveAspectRatio="xMidYMid meet">

<g transform="translate(0.000000,980.000000) scale(0.100000,-0.100000)"
fill="#000000" stroke="none">
<path d="M3497 9033 c-4 -421 -7 -1207 -7 -1745 l0 -978 -948 0 c-522 0 -1307
-3 -1745 -7 l-797 -6 0 -1397 0 -1397 797 -6 c438 -4 1223 -7 1745 -7 l948 0
0 -957 c0 -527 3 -1312 7 -1745 l6 -788 1397 0 1397 0 6 803 c4 441 7 1226 7
1745 l0 942 948 0 c522 0 1307 3 1745 7 l797 6 0 1397 0 1397 -797 6 c-438 4
-1223 7 -1745 7 l-948 0 0 943 c0 518 -3 1303 -7 1745 l-6 802 -1397 0 -1397
0 -6 -767z"/>
</g>
</svg>
